HIERARCHY
ROOT Hips
{
	OFFSET 0.000000 0.000000 0.000000 
	CHANNELS 6 Xposition Yposition Zposition Zrotation Yrotation Xrotation
	JOINT LeftUpLeg
	{
		OFFSET 1.363060 -1.794630 0.839290 
		CHANNELS 3 Zrotation Yrotation Xrotation
		JOINT LeftLeg
		{
			OFFSET 2.448110 -6.726130 0.000000 
			CHANNELS 3 Zrotation Yrotation Xrotation
			JOINT LeftFoot
			{
				OFFSET 2.562200 -7.039590 0.000000 
				CHANNELS 3 Zrotation Yrotation Xrotation
				JOINT LeftToeBase
				{
					OFFSET 0.157640 -0.433110 2.322550 
					CHANNELS 3 Zrotation Yrotation Xrotation
					End Site
					{
						OFFSET 0.000000 0.000000 0.000000 
					}
				}
			}
		}
	}
	JOINT RightUpLeg
	{
		OFFSET -1.305520 -1.794630 0.839290 
		CHANNELS 3 Zrotation Yrotation Xrotation
		JOINT RightLeg
		{
			OFFSET -2.542530 -6.985550 0.000000 
			CHANNELS 3 Zrotation Yrotation Xrotation
			JOINT RightFoot
			{
				OFFSET -2.568260 -7.056230 0.000000 
				CHANNELS 3 Zrotation Yrotation Xrotation
				JOINT RightToeBase
				{
					OFFSET -0.164730 -0.452590 2.363150 
					CHANNELS 3 Zrotation Yrotation Xrotation
					End Site
					{
						OFFSET 0.000000 0.000000 0.000000 
					}
				}
			}
		}
	}
	JOINT Spine
	{
		OFFSET 0.028270 2.035590 -0.193380 
		CHANNELS 3 Zrotation Yrotation Xrotation
		JOINT Spine1
		{
			OFFSET 0.056720 2.048850 -0.042750 
			CHANNELS 3 Zrotation Yrotation Xrotation
			JOINT Neck1
			{
				OFFSET -0.054170 1.746240 0.172020 
				CHANNELS 3 Zrotation Yrotation Xrotation
				JOINT Head
				{
					OFFSET 0.104070 1.761360 -0.123970 
					CHANNELS 3 Zrotation Yrotation Xrotation
					End Site
					{
						OFFSET 0.000000 0.000000 0.000000 
					}
				}
			}
			JOINT LeftArm
			{
				OFFSET 3.362410 1.200890 -0.311210 
				CHANNELS 3 Zrotation Yrotation Xrotation
				JOINT LeftForeArm
				{
					OFFSET 4.983000 -0.000000 -0.000000 
					CHANNELS 3 Zrotation Yrotation Xrotation
					JOINT LeftHand
					{
						OFFSET 3.483560 -0.000000 -0.000000 
						CHANNELS 3 Zrotation Yrotation Xrotation
						JOINT LeftHandIndex1
						{
							OFFSET 0.715260 -0.000000 -0.000000 
							CHANNELS 3 Zrotation Yrotation Xrotation
							End Site
							{
								OFFSET 0.000000 0.000000 0.000000 
							}
						}
					}
				}
			}
			JOINT RightArm
			{
				OFFSET -3.136600 1.374050 -0.404650 
				CHANNELS 3 Zrotation Yrotation Xrotation
				JOINT RightForeArm
				{
					OFFSET -5.241900 -0.000000 -0.000000 
					CHANNELS 3 Zrotation Yrotation Xrotation
					JOINT RightHand
					{
						OFFSET -3.444170 -0.000000 -0.000000 
						CHANNELS 3 Zrotation Yrotation Xrotation
						JOINT RightHandIndex1
						{
							OFFSET -0.622530 -0.000000 -0.000000 
							CHANNELS 3 Zrotation Yrotation Xrotation
							End Site
							{
								OFFSET 0.000000 0.000000 0.000000 
							}
						}
					}
				}
			}
		}
	}
}
MOTION
Frames: 13
Frame Time: 0.041667
-6.720027 17.828141 -0.622146 -106.308810 88.362969 -91.192871 -5.138768 -0.065498 -30.091684 0.826472 9.970274 27.659720 1.239419 -3.844660 2.044123 0.983800 -6.313600 -17.697100 4.288122 2.370846 -30.084641 -2.545499 -9.928918 29.790786 0.928038 -5.611023 -1.492489 -0.212900 -2.970800 8.197400 4.154445 3.401601 5.093629 5.135687 1.705844 0.791939 -0.407287 -2.537869 31.514187 -2.342800 0.049300 16.698100 -107.347140 -20.009473 86.479091 12.294814 -22.179453 -1.229931 0.018161 1.144918 -33.602371 -7.125000 0.000000 0.000000 104.006230 21.925509 33.961480 -10.852213 20.870160 -1.959563 -0.273931 -0.131662 -44.340253 7.125000 0.000000 0.000000 
-6.719523 17.827939 -0.623658 -106.842057 88.376400 -91.729474 -5.163662 -0.074202 -30.092464 0.822085 9.968951 27.648789 1.236829 -3.834363 2.061310 0.978700 -6.297500 -17.650100 4.247113 2.371400 -30.065537 -2.548072 -9.930282 29.803075 0.912663 -5.538032 -1.517962 -0.262300 -3.294900 9.100800 4.149263 3.397173 5.087001 5.132804 1.704417 0.786465 -0.396250 -2.564363 31.513134 -2.338900 0.038500 16.695100 -107.317913 -19.991391 86.548159 12.314620 -22.205116 -1.232498 0.016988 1.139325 -33.691070 -7.125000 0.000000 0.000000 104.222344 21.974037 33.442056 -10.748859 20.701523 -1.923600 -0.275012 -0.124079 -43.669484 7.125000 0.000000 0.000000 
-6.719724 17.827234 -0.626682 -107.665087 88.375879 -92.566480 -5.187153 -0.084357 -30.101433 0.823666 9.979175 27.668620 1.239457 -3.851481 2.062945 0.975700 -6.288100 -17.622600 4.275109 2.229489 -30.097361 -2.548383 -9.924865 29.793060 0.922825 -5.582455 -1.440936 -0.242000 -3.165800 8.740700 4.164421 3.398947 5.085048 5.129158 1.708082 0.774653 -0.368926 -2.573971 31.490268 -2.321900 0.033000 16.675200 -107.355268 -19.993600 86.555341 12.306451 -22.191024 -1.228380 0.016422 1.139167 -33.592052 -7.125000 0.000000 0.000000 104.462754 22.072588 32.776280 -10.601567 20.469997 -1.876844 -0.271613 -0.121946 -42.864627 7.125000 0.000000 0.000000 
-6.719926 17.826931 -0.629606 -108.473758 88.342972 -93.401143 -5.182030 -0.088170 -30.091118 0.823965 9.983657 27.674864 1.255601 -3.932234 2.081390 0.961400 -6.243100 -17.491400 4.345516 2.077107 -30.121681 -2.549669 -9.927398 29.787450 1.073348 -6.286164 -1.835185 -0.304900 3.550300 -9.814700 4.260937 3.379313 5.093664 5.197747 1.703965 0.761062 -0.420127 -2.514814 31.482001 -2.334400 0.047000 16.674300 -107.442154 -20.017912 86.474992 12.295242 -22.166781 -1.220457 0.014966 1.136377 -33.513238 -7.125000 0.000000 0.000000 104.509644 22.107241 32.554104 -10.543627 20.381308 -1.859348 -0.269153 -0.123301 -42.561233 7.125000 0.000000 0.000000 
-6.719926 17.828544 -0.630614 -108.850985 88.307854 -93.792318 -5.155166 -0.106925 -30.074209 0.825023 9.986558 27.679412 1.262445 -3.966094 2.099475 0.950200 -6.208000 -17.389000 4.377788 2.071936 -30.096327 -2.549925 -9.926862 29.784661 1.091114 -6.367470 -1.797819 -0.359800 3.853600 -10.665100 4.326243 3.393251 5.085410 5.243001 1.713983 0.737284 -0.470475 -2.511701 31.526763 -2.360300 0.047800 16.707900 -107.497996 -20.004857 86.402444 12.271299 -22.125823 -1.210419 0.022552 1.132957 -33.428614 -7.125000 0.000000 0.000000 104.554877 22.166034 32.200150 -10.461030 20.246130 -1.831533 -0.270082 -0.118047 -42.142214 7.125000 0.000000 0.000000 
-6.720229 17.828846 -0.630210 -108.963771 88.313502 -93.892258 -5.152792 -0.120132 -30.084169 0.825266 9.988655 27.682298 1.261975 -3.963221 2.086302 0.949100 -6.204400 -17.378700 4.356018 2.127723 -30.084363 -2.549330 -9.920024 29.778471 0.994876 -5.916472 -1.391194 -0.065200 -1.647200 4.531700 4.300895 3.450350 5.076423 5.223034 1.741206 0.730746 -0.431497 -2.598723 31.555951 -2.356800 0.023400 16.724500 -107.515489 -19.985817 86.381060 12.238646 -22.074545 -1.198514 0.033627 1.130866 -33.225222 -7.125000 0.000000 0.000000 104.627932 22.266147 31.817231 -10.375811 20.106475 -1.802904 -0.271759 -0.114062 -41.810781 7.125000 0.000000 0.000000 
-6.720229 17.826528 -0.631017 -109.439283 88.354871 -94.355231 -5.211718 -0.097283 -30.121764 0.823697 9.992435 27.686335 1.264318 -3.973910 2.020186 0.980600 -6.303500 -17.667600 4.308201 2.117586 -30.097911 -2.550641 -9.921726 29.778022 1.109904 -6.451084 -1.858053 -0.331900 3.702600 -10.241600 4.259413 3.475978 5.085058 5.212270 1.753779 0.746577 -0.378860 -2.644093 31.524508 -2.339500 0.011800 16.698800 -107.501884 -19.991502 86.338437 12.227892 -22.062388 -1.198421 0.043765 1.132888 -33.017520 -7.125000 0.000000 0.000000 104.576776 22.267722 32.018982 -10.421301 20.181897 -1.817528 -0.274152 -0.120949 -42.115410 7.125000 0.000000 0.000000 
-6.719120 17.826629 -0.633436 -110.250863 88.354017 -95.172586 -5.246121 -0.075970 -30.145381 0.822835 9.997592 27.693414 1.281067 -4.060402 2.027094 0.975200 -6.286700 -17.618500 4.303186 2.061270 -30.098972 -2.550760 -9.920443 29.782175 1.127811 -6.534237 -2.105483 -0.589000 4.913500 -13.662100 4.260339 3.461790 5.089454 5.209919 1.750069 0.753356 -0.380377 -2.618192 31.509494 -2.338200 0.022800 16.687100 -107.462781 -19.996087 86.364764 12.245756 -22.100037 -1.212809 0.048644 1.137700 -33.035483 -7.125000 0.000000 0.000000 104.542372 22.234280 32.163761 -10.460840 20.248456 -1.830940 -0.274661 -0.127859 -42.278327 7.125000 0.000000 0.000000 
-6.718313 17.828544 -0.636863 -111.194976 88.323658 -96.119055 -5.240209 -0.102040 -30.149956 0.822219 10.003015 27.699429 1.297461 -4.148858 2.087101 0.939600 -6.174000 -17.290200 4.329190 1.953616 -30.116526 -2.550497 -9.915929 29.780592 1.108835 -6.445394 -2.140963 -0.543400 4.723000 -13.120000 4.288086 3.428309 5.066058 5.208435 1.737956 0.728000 -0.402278 -2.576813 31.542302 -2.342100 0.038500 16.708200 -107.419316 -19.993552 86.434087 12.269967 -22.140873 -1.222975 0.039238 1.141314 -33.126430 -7.125000 0.000000 0.000000 104.589263 22.228077 31.957625 -10.412171 20.169628 -1.815586 -0.273101 -0.126113 -42.062372 7.125000 0.000000 0.000000 
-6.718313 17.827939 -0.639585 -111.754709 88.324003 -96.679214 -5.253492 -0.129367 -30.148088 0.821463 10.007481 27.705441 1.294869 -4.139450 2.092648 0.943700 -6.187100 -17.328300 4.319288 1.890711 -30.121210 -2.548780 -9.910828 29.769987 1.098619 -6.397140 -2.141470 -0.519400 4.618900 -12.824800 4.281158 3.423662 5.046590 5.190932 1.737569 0.700307 -0.384354 -2.567366 31.573906 -2.330700 0.046200 16.725500 -107.419368 -19.992498 86.441256 12.252605 -22.112434 -1.214473 0.036381 1.142155 -33.067626 -7.125000 0.000000 0.000000 104.619175 22.222453 31.821650 -10.384441 20.124647 -1.806898 -0.272004 -0.124335 -41.978982 7.125000 0.000000 0.000000 
-6.718011 17.827334 -0.640391 -111.424673 88.331394 -96.366917 -5.273576 -0.076938 -30.149089 0.823320 10.007748 27.711340 1.291576 -4.121671 2.083287 0.980000 -6.301600 -17.662100 4.298096 1.944745 -30.075857 -2.547810 -9.909674 29.758538 1.095142 -6.378787 -1.920047 -0.298900 3.515600 -9.717700 4.255308 3.461934 5.066012 5.159072 1.754739 0.704730 -0.333117 -2.589104 31.578769 -2.309600 0.044400 16.729400 -107.459288 -19.999028 86.387416 12.206081 -22.039273 -1.197358 0.047232 1.141207 -32.896417 -7.125000 0.000000 0.000000 104.613296 22.265228 31.767155 -10.369593 20.101795 -1.802515 -0.271551 -0.124207 -41.991100 7.125000 0.000000 0.000000 
-6.717507 17.828141 -0.641601 -111.250228 88.320136 -96.200237 -5.272250 -0.034052 -30.155113 0.823802 10.005708 27.708608 1.301628 -4.169636 2.094073 0.964000 -6.251400 -17.515600 4.297946 1.975361 -30.054839 -2.546746 -9.906211 29.761856 0.967583 -5.783387 -1.564946 -0.117000 -2.205400 6.073600 4.231081 3.496524 5.084265 5.117775 1.771120 0.721494 -0.292120 -2.613890 31.558245 -2.295900 0.040400 16.715000 -107.463842 -20.003439 86.386882 12.186773 -22.010635 -1.190952 0.050044 1.142648 -32.759004 -7.125000 0.000000 0.000000 104.594557 22.320051 31.678690 -10.328998 20.039740 -1.791616 -0.267348 -0.124548 -41.933903 7.125000 0.000000 0.000000 
-6.717910 17.827838 -0.643516 -111.566101 88.307664 -96.516698 -5.262417 -0.059824 -30.151961 0.821521 10.004312 27.699403 1.302682 -4.173098 2.083787 0.942600 -6.183700 -17.318300 4.303925 1.970227 -30.055487 -2.550629 -9.913658 29.770842 1.112790 -6.459949 -1.954829 -0.531900 4.673400 -12.979400 4.248622 3.498165 5.086364 5.120545 1.773526 0.725893 -0.289281 -2.602726 31.546133 -2.289800 0.042500 16.705500 -107.413750 -20.019848 86.626693 12.237633 -22.096326 -1.213422 0.035797 1.146697 -33.025955 -7.125000 0.000000 0.000000 104.581562 22.347622 31.644608 -10.288402 19.975479 -1.779693 -0.264493 -0.123694 -41.867081 7.125000 0.000000 0.000000 
